<mxfile host="app.diagrams.net" agent="Mozilla/5.0 (Windows NT 10.0; Win64; x64) AppleWebKit/537.36 (KHTML, like Gecko) Chrome/132.0.0.0 Safari/537.36" version="26.0.10">
  <diagram name="Page-1" id="G8fgR1shorRb9PO7YNam">
    <mxGraphModel grid="1" page="1" gridSize="10" guides="1" tooltips="1" connect="1" arrows="1" fold="1" pageScale="1" pageWidth="827" pageHeight="1169" math="0" shadow="0">
      <root>
        <mxCell id="0" />
        <mxCell id="1" parent="0" />
        <mxCell id="oJ9T_3BqBTM2uwLDe9mH-8" style="edgeStyle=orthogonalEdgeStyle;rounded=0;orthogonalLoop=1;jettySize=auto;html=1;entryX=0.5;entryY=0;entryDx=0;entryDy=0;" edge="1" parent="1" source="oJ9T_3BqBTM2uwLDe9mH-1" target="oJ9T_3BqBTM2uwLDe9mH-2">
          <mxGeometry relative="1" as="geometry" />
        </mxCell>
        <mxCell id="oJ9T_3BqBTM2uwLDe9mH-1" value="START" style="rounded=0;whiteSpace=wrap;html=1;" vertex="1" parent="1">
          <mxGeometry x="320" y="70" width="120" height="60" as="geometry" />
        </mxCell>
        <mxCell id="oJ9T_3BqBTM2uwLDe9mH-9" style="edgeStyle=orthogonalEdgeStyle;rounded=0;orthogonalLoop=1;jettySize=auto;html=1;exitX=0.5;exitY=1;exitDx=0;exitDy=0;entryX=0.5;entryY=0;entryDx=0;entryDy=0;" edge="1" parent="1" source="oJ9T_3BqBTM2uwLDe9mH-2" target="oJ9T_3BqBTM2uwLDe9mH-4">
          <mxGeometry relative="1" as="geometry" />
        </mxCell>
        <mxCell id="oJ9T_3BqBTM2uwLDe9mH-2" value="Sjekk tid" style="rounded=0;whiteSpace=wrap;html=1;" vertex="1" parent="1">
          <mxGeometry x="320" y="160" width="120" height="60" as="geometry" />
        </mxCell>
        <mxCell id="oJ9T_3BqBTM2uwLDe9mH-3" value="Slutt" style="rounded=0;whiteSpace=wrap;html=1;" vertex="1" parent="1">
          <mxGeometry x="320" y="470" width="120" height="60" as="geometry" />
        </mxCell>
        <mxCell id="oJ9T_3BqBTM2uwLDe9mH-10" style="edgeStyle=orthogonalEdgeStyle;rounded=0;orthogonalLoop=1;jettySize=auto;html=1;exitX=0.5;exitY=1;exitDx=0;exitDy=0;entryX=0.5;entryY=0;entryDx=0;entryDy=0;" edge="1" parent="1" source="oJ9T_3BqBTM2uwLDe9mH-4" target="oJ9T_3BqBTM2uwLDe9mH-5">
          <mxGeometry relative="1" as="geometry" />
        </mxCell>
        <mxCell id="oJ9T_3BqBTM2uwLDe9mH-4" value="Finn hvilke hilsen" style="rounded=0;whiteSpace=wrap;html=1;" vertex="1" parent="1">
          <mxGeometry x="320" y="250" width="120" height="60" as="geometry" />
        </mxCell>
        <mxCell id="oJ9T_3BqBTM2uwLDe9mH-11" style="edgeStyle=orthogonalEdgeStyle;rounded=0;orthogonalLoop=1;jettySize=auto;html=1;exitX=0.5;exitY=1;exitDx=0;exitDy=0;entryX=0.5;entryY=0;entryDx=0;entryDy=0;" edge="1" parent="1" source="oJ9T_3BqBTM2uwLDe9mH-5" target="oJ9T_3BqBTM2uwLDe9mH-3">
          <mxGeometry relative="1" as="geometry" />
        </mxCell>
        <mxCell id="oJ9T_3BqBTM2uwLDe9mH-5" value="Skriv til cons hilsen" style="rounded=0;whiteSpace=wrap;html=1;" vertex="1" parent="1">
          <mxGeometry x="320" y="370" width="120" height="60" as="geometry" />
        </mxCell>
      </root>
    </mxGraphModel>
  </diagram>
</mxfile>
